<svg width="140" height="19" viewBox="0 0 140 19" fill="none" xmlns="http://www.w3.org/2000/svg">
<g clip-path="url(#clip0_419_604)">
<path d="M21.6868 14.5152L23.4455 14.4888L23.4982 18.0066L21.7394 18.033C21.4656 18.0371 21.156 18.0419 20.8181 18.0419C18.3753 18.0419 14.4572 17.7996 11.982 15.3612C10.8801 14.2756 10.186 12.8956 9.9087 11.2443H3.5435L3.5184 18.0396L0 18.0265L0.0565987 2.69803V0.937032H0.0630989V0.930532L1.8206 0.937032H18.3955C20.6247 0.937032 23.9408 2.30953 23.9408 6.09033C23.9408 9.87153 20.859 11.244 18.7875 11.244H13.5165C13.7063 11.8875 14.0136 12.4234 14.4509 12.8543C16.2195 14.5963 19.9123 14.5419 21.6868 14.5152ZM3.5755 7.72623H18.7723C18.9259 7.72083 19.3842 7.66303 19.7618 7.45423C20.0889 7.27323 20.4231 6.96973 20.4231 6.09083C20.4231 5.38413 20.1839 5.00153 19.5697 4.72613C19.0115 4.47593 18.402 4.45573 18.3963 4.45573H3.5756L3.5755 7.72623ZM51.6354 2.54683C53.0245 3.92403 53.013 5.91603 52.9954 8.93133C52.994 9.15583 52.9928 9.38843 52.9919 9.62933C52.9851 11.4188 52.9804 12.7118 52.7925 13.8021C52.6325 14.7318 52.2631 16.0718 50.9102 16.9736C49.1968 18.1158 46.6372 18.1417 41.0298 18.1977C40.154 18.2064 39.3463 18.2129 38.6012 18.2129C34.1583 18.2129 31.9249 17.9777 30.4977 16.5598C29.0114 15.083 29.0197 12.9082 29.0319 9.61623C29.0456 5.94323 29.0539 3.72613 30.9159 2.34973C32.5223 1.16233 34.8553 1.13103 39.9669 1.06233L40.987 1.04833C47.3572 0.957231 49.994 0.919231 51.6354 2.54683ZM49.4665 8.91053C49.4764 7.17783 49.4869 5.38583 49.1507 5.05283C48.7336 4.63933 46.8618 4.54373 44.3703 4.54373C43.3451 4.54373 42.2147 4.55993 41.0378 4.57673L40.0145 4.59083C36.3526 4.63993 33.707 4.67553 33.0144 5.18723C32.5772 5.51033 32.5701 7.41883 32.5618 9.62893C32.5541 11.6811 32.5468 13.6195 32.9859 14.0557C33.6751 14.7406 37.3961 14.7032 40.9948 14.6676C45.1271 14.6264 48.1128 14.5965 48.9531 14.0363C49.4478 13.7065 49.4541 11.9906 49.463 9.61553C49.4638 9.37223 49.4651 9.13743 49.4665 8.91053ZM82.122 6.16873C82.122 7.69463 81.624 8.83113 80.894 9.64723C81.628 10.455 82.122 11.5606 82.122 13.0251C82.122 16.8438 79.009 18.2299 76.917 18.2299H58V0.964131H76.521C78.773 0.964131 82.122 2.35003 82.122 6.16873ZM77.901 14.4014C78.231 14.2187 78.569 13.9122 78.568 13.0246C78.568 12.3107 78.327 11.9243 77.706 11.6462C77.143 11.3934 76.527 11.373 76.521 11.373H61.553V14.676H76.901C77.056 14.6708 77.519 14.6124 77.901 14.4014ZM77.901 7.54533C78.231 7.36263 78.569 7.05643 78.569 6.16853C78.569 5.45473 78.327 5.06823 77.707 4.79013C77.143 4.53733 76.527 4.51693 76.521 4.51693H61.553V7.81993H76.901C77.056 7.81473 77.519 7.75633 77.901 7.54533ZM110.819 4.51673H90.25V7.82583L103.969 7.87693L103.956 11.4304L90.25 11.3793V14.6761H110.819V18.2295H86.697V0.963732H110.819V4.51673ZM120.099 4.59773C119.768 4.78023 119.431 5.08663 119.431 5.97453C119.431 6.66653 119.655 7.04493 120.229 7.32323C120.81 7.60473 121.458 7.62533 121.491 7.62613L134.407 7.67663C136.651 7.67663 140 9.06273 140 12.8814C140 16.7 136.888 18.0861 134.795 18.0861H115.878V14.5328H134.78C134.935 14.5274 135.398 14.469 135.779 14.258C136.11 14.0753 136.447 13.7689 136.447 12.8812C136.447 12.1892 136.224 11.8109 135.649 11.5325C135.07 11.2518 134.422 11.2306 134.386 11.2296L121.479 11.1722V11.1791C119.227 11.1791 115.878 9.79303 115.878 5.97433C115.878 2.15563 118.99 0.769531 121.083 0.769531H140V4.32293H121.099C120.944 4.32823 120.48 4.38673 120.099 4.59773Z" fill="white"/>
</g>
<defs>
<clipPath id="clip0_419_604">
<rect width="140" height="19" fill="white"/>
</clipPath>
</defs>
</svg>
